<svg width="32" height="32" viewBox="0 0 24 24" fill="none" xmlns="http://www.w3.org/2000/svg">
  <path d="M20 6H16V4C16 2.89 15.11 2 14 2H10C8.89 2 8 2.89 8 4V6H4C2.89 6 2 6.89 2 8V19C2 20.11 2.89 21 4 21H20C21.11 21 22 20.11 22 19V8C22 6.89 21.11 6 20 6ZM10 4H14V6H10V4ZM20 19H4V8H20V19Z" fill="#1684FA"/>
  <path d="M12 10C13.1046 10 14 10.8954 14 12C14 13.1046 13.1046 14 12 14C10.8954 14 10 13.1046 10 12C10 10.8954 10.8954 10 12 10Z" fill="#1684FA"/>
  <path d="M16 14.5C16 13.12 14.88 12 13.5 12L13 12.5V15.5L13.5 16C14.88 16 16 14.88 16 13.5Z" fill="#1684FA"/>
  <path d="M8 14.5C8 13.12 9.12 12 10.5 12L11 12.5V15.5L10.5 16C9.12 16 8 14.88 8 13.5Z" fill="#1684FA"/>
</svg>